<?xml version="1.0" encoding="UTF-8"?>
<!-- Generator: Adobe Illustrator 19.2.1, SVG Export Plug-In . SVG Version: 6.00 Build 0)  -->
<svg xmlns="http://www.w3.org/2000/svg" xmlns:xlink="http://www.w3.org/1999/xlink" version="1.1" id="Capa_1" x="0px" y="0px" width="76.2px" height="34.9px" viewBox="0 0 76.2 34.9" style="enable-background:new 0 0 76.2 34.9;" xml:space="preserve">
<style type="text/css">
	.st0{fill:#231F20;}
	.st1{fill:none;}
	.st2{fill:#67B2E8;}
	.st3{fill:#001970;}
</style>
<g>
	<path class="st0" d="M64.5,34.6h2.3v-8c0-2.5,1.4-4.4,4.2-4.4c1.8,0,2.9,1.1,2.9,2.8v9.6h2.3v-9.3c0-3-1.1-5.2-4.9-5.2   c-2,0-3.6,0.8-4.6,2.6h-0.1v-2.2h-2.2V34.6z M50.7,27.6c0-3.4,2-5.4,4.4-5.4c2.4,0,4.4,1.9,4.4,5.4c0,3.4-2,5.3-4.4,5.3   C52.7,32.9,50.7,31,50.7,27.6 M48.3,27.6c0,4.1,2.4,7.4,6.9,7.4c4.5,0,6.9-3.3,6.9-7.4c0-4.2-2.4-7.4-6.9-7.4   C50.6,20.1,48.3,23.4,48.3,27.6 M47.6,20.5h-2.4l-3.9,11.8h-0.1l-4-11.8h-2.6l5.3,14.1h2.5L47.6,20.5z M34.4,32.8   c-0.3,0.1-0.5,0.1-0.7,0.1c-0.7,0-0.7-0.5-0.7-1.6V24c0-3.3-2.8-3.9-5.3-3.9c-3.1,0-5.9,1.2-6,4.7H24c0.1-2.1,1.6-2.7,3.5-2.7   c1.5,0,3.1,0.3,3.1,2.4c0,1.8-2.2,1.6-4.8,2.1c-2.4,0.5-4.8,1.1-4.8,4.3c0,2.8,2.1,4,4.7,4c2,0,3.7-0.7,5-2.2c0,1.5,0.8,2.2,2,2.2   c0.7,0,1.3-0.1,1.7-0.4V32.8z M30.6,29.7c0,1.3-1.3,3.2-4.3,3.2c-1.4,0-2.7-0.5-2.7-2.1c0-1.7,1.3-2.3,2.8-2.5   c1.6-0.3,3.3-0.3,4.2-1V29.7z M16.2,34.6h2.3V15.1h-2.3V34.6z M0,34.6h13.6v-2.2h-11v-6.8h10.1v-2.2H2.6v-6.2h10.9v-2.2H0V34.6z"></path>
	<g>
		<path class="st1" d="M59.3,0.5c0,0-1.2,0.4-4.2,3.7c0.6-0.1,1.1-0.2,1.7-0.2c1.2-0.1,2.2-0.1,3.1-0.1C59.9,2.7,59.8,1.2,59.3,0.5z    "></path>
		<path class="st2" d="M44.4,19.1c4-6.4,7.1-10.6,9.4-13.4c-0.4,0.1-0.7,0.2-1.1,0.3C48.9,11.4,44.4,19.1,44.4,19.1z"></path>
		<path class="st3" d="M62,4.1C62,4.1,62,4.1,62,4.1c0,0.5,0,1.1,0,1.8c0.7,0.3,1.3,0.6,1.8,1.1c1.8,1.7,2.9,5.3,0.7,12.1    c0,0,0.6-0.8,1.4-3.5C67.2,11.2,67.4,5.2,62,4.1z"></path>
		<path class="st2" d="M62,4.1c0-0.7-0.1-1.3-0.2-1.7c-0.1-0.4-0.2-0.9-0.3-1.2c-0.2-0.5-0.4-0.9-0.6-1c-0.2-0.1-0.4-0.1-0.4-0.1    L58.7,0c-1.1,0-2.8,1.9-2.8,1.9c-0.6,0.6-1.3,1.5-2,2.5c0.5-0.1,0.9-0.2,1.4-0.3c2.9-3.3,4.2-3.7,4.2-3.7C59.8,1.2,60,2.7,60,3.8    c0,0.9,0,1.5,0,1.6c0,0,0,0,0,0c0,3.8-1.2,6.7-2,8.8c-1.4,3.7-2.7,4.9-2.7,4.9c2.7,0,4.3,1.2,4.3,1.2c0,0,0-0.1,0-0.1    C61.5,13.8,62,9,62,5.9C62,5.2,62,4.6,62,4.1z"></path>
		<path class="st3" d="M56.8,3.9c-0.6,0.1-1.1,0.1-1.7,0.2c-0.4,0.1-0.9,0.2-1.4,0.3c-1.2,0.3-2.5,0.7-4.1,1.3    c-9.7,3.5-19.6,13.5-19.6,13.5S41.7,8.7,52.7,5.9c0.4-0.1,0.7-0.2,1.1-0.3c1.3-0.3,2.5-0.4,3.7-0.4c0.6,0,1.4,0,2.3,0.1    c0,0,0.1-0.7,0.1-1.6C59.1,3.8,58,3.8,56.8,3.9z"></path>
	</g>
</g>
</svg>
